<svg width="72" height="86" viewBox="0 0 72 86" fill="none" xmlns="http://www.w3.org/2000/svg">
<path d="M71.1357 83.4808V81.9664C71.068 81.7306 71.0158 81.4906 70.9793 81.2479C70.4532 75.3688 69.9293 69.4891 69.4077 63.6088C68.8187 57.0611 68.2231 50.514 67.6207 43.9674C67.0368 37.4741 66.4765 30.9791 65.8859 24.4874C65.6958 22.3909 64.5045 21.3308 62.4045 21.3274C59.2412 21.3274 56.0795 21.3274 52.9161 21.3274H51.9721C51.9721 19.4765 52.0243 17.7401 51.9621 16.0103C51.6777 8.05478 46.0728 1.63214 38.2452 0.242277C30.0541 -1.21152 21.8344 4.07197 19.6789 12.1268C19.0395 14.5195 19.0833 16.9442 19.0833 19.3773V21.3274H8.81915C6.50383 21.3274 5.37141 22.3656 5.16614 24.6742C4.4168 33.0874 3.66971 41.5006 2.92486 49.9138C1.97753 60.5027 1.06217 71.0949 0.0391235 81.677C-0.159431 83.7349 0.358833 85.1651 2.28377 85.993H68.7851C69.931 85.4983 70.7588 84.7041 71.1357 83.4808ZM64.6475 79.7571H6.42812C7.99522 62.3205 9.55726 44.9293 11.1143 27.5835H19.0849C19.0849 29.4159 19.0563 31.1776 19.0849 32.9377C19.1321 35.1773 21.158 36.626 23.1956 35.9159C24.4711 35.4717 25.2468 34.3141 25.2619 32.7694C25.2771 31.043 25.2619 29.3166 25.2619 27.5532H45.7901C45.7901 27.989 45.7901 28.3743 45.7901 28.758C45.7901 30.1579 45.7582 31.5579 45.8019 32.9646C45.8574 34.7684 47.1867 36.0909 48.8727 36.0993C50.5957 36.1078 51.925 34.7532 51.9755 32.9023C51.989 32.3975 51.9755 31.8927 51.9755 31.388V27.5414H59.9512C61.5206 44.9534 63.086 62.3586 64.6475 79.7571ZM25.2838 21.2854C25.2838 19.5253 25.2501 17.8242 25.2838 16.123C25.3847 11.6725 28.5161 7.69133 32.7682 6.5606C34.9027 5.98004 37.1669 6.09678 39.2304 6.89378C41.2939 7.69078 43.0487 9.12633 44.2387 10.991C46.3016 14.2132 45.6909 17.7602 45.7918 21.2854H25.2838Z" fill="white"/>
</svg>
