<svg width="360" height="323" viewBox="0 0 360 323" fill="none" xmlns="http://www.w3.org/2000/svg">
<path d="M18.3654 142.582C17.5002 141.169 15.6533 140.725 14.2403 141.59C12.8274 142.455 12.3833 144.302 13.2486 145.715L18.3654 142.582ZM204.193 135.014L204.323 132.017L204.322 132.017L204.193 135.014ZM165.161 237.961L167.233 235.792L167.233 235.791L165.161 237.961ZM332.216 119.158C332.343 117.506 331.107 116.064 329.455 115.937C327.803 115.81 326.361 117.046 326.234 118.698L332.216 119.158ZM7.06421 167.089C6.78442 168.722 7.88146 170.272 9.51452 170.552C11.1476 170.832 12.6983 169.735 12.978 168.102L7.06421 167.089ZM14.3803 142.152L14.5059 139.155C12.9982 139.092 11.6782 140.158 11.4233 141.645L14.3803 142.152ZM40.5054 145.707C42.1591 145.604 43.4165 144.181 43.3139 142.527C43.2114 140.873 41.7877 139.616 40.134 139.718L40.5054 145.707ZM15.807 144.148C13.2486 145.715 13.2493 145.716 13.2502 145.718C13.2509 145.719 13.2521 145.721 13.2534 145.723C13.2559 145.727 13.2595 145.733 13.264 145.74C13.273 145.755 13.2859 145.776 13.3026 145.803C13.3361 145.857 13.3849 145.935 13.4489 146.038C13.5769 146.242 13.7657 146.541 14.0137 146.928C14.5096 147.702 15.2428 148.827 16.2013 150.249C18.1179 153.092 20.9372 157.124 24.5643 161.905C31.813 171.459 42.3153 184.041 55.3137 196.109C81.1752 220.12 117.628 242.738 158.295 234.045L157.041 228.177C119.355 236.233 84.8768 215.37 59.3962 191.712C46.7236 179.946 36.4518 167.647 29.3443 158.278C25.7933 153.598 23.039 149.658 21.1765 146.895C20.2454 145.514 19.5376 144.427 19.065 143.69C18.8288 143.322 18.6513 143.04 18.5342 142.853C18.4757 142.76 18.4322 142.69 18.404 142.644C18.3899 142.622 18.3796 142.605 18.3732 142.594C18.37 142.589 18.3677 142.585 18.3664 142.583C18.3658 142.582 18.3655 142.582 18.3652 142.581C18.3652 142.581 18.3654 142.582 15.807 144.148ZM158.295 234.045C198.476 225.455 219.538 201.045 225.947 178.143C229.132 166.762 228.717 155.64 225.035 147.108C221.313 138.483 214.173 132.445 204.323 132.017L204.063 138.011C211.206 138.321 216.542 142.57 219.526 149.485C222.55 156.492 223.07 166.162 220.169 176.526C214.407 197.117 195.213 220.018 157.041 228.177L158.295 234.045ZM204.322 132.017C194.904 131.611 184.874 135.689 175.945 142.321C166.976 148.983 158.849 158.414 153.212 169.211C141.918 190.839 140.439 218.501 163.089 240.131L167.233 235.791C147.05 216.518 148.095 191.974 158.53 171.988C163.757 161.977 171.295 153.249 179.523 147.138C187.792 140.996 196.49 137.685 204.063 138.011L204.322 132.017ZM163.089 240.13C174.628 251.152 190.776 254.778 208.182 252.811C225.584 250.845 244.525 243.278 262.205 231.516C297.529 208.018 328.52 167.283 332.216 119.158L326.234 118.698C322.714 164.539 293.082 203.77 258.882 226.521C241.801 237.884 223.755 245.013 207.508 246.849C191.265 248.684 177.103 245.219 167.233 235.792L163.089 240.13ZM12.978 168.102L17.3372 142.659L11.4233 141.645L7.06421 167.089L12.978 168.102ZM14.3803 142.152C14.2546 145.149 14.2547 145.149 14.2549 145.149C14.2551 145.149 14.2554 145.149 14.2557 145.149C14.2564 145.15 14.2574 145.15 14.2587 145.15C14.2614 145.15 14.2652 145.15 14.2704 145.15C14.2806 145.151 14.2958 145.151 14.3159 145.152C14.3559 145.154 14.4153 145.156 14.4928 145.159C14.6478 145.166 14.8754 145.175 15.1667 145.187C15.7493 145.21 16.5867 145.243 17.6072 145.282C19.6478 145.359 22.4228 145.459 25.3579 145.549C31.1442 145.726 37.7986 145.875 40.5054 145.707L40.134 139.718C37.7737 139.865 31.4584 139.733 25.5418 139.552C22.6254 139.462 19.8656 139.363 17.8343 139.286C16.8188 139.248 15.986 139.215 15.4073 139.191C15.118 139.18 14.8923 139.171 14.739 139.164C14.6624 139.161 14.6039 139.159 14.5647 139.157C14.5451 139.156 14.5303 139.156 14.5204 139.155C14.5155 139.155 14.5118 139.155 14.5094 139.155C14.5082 139.155 14.5073 139.155 14.5067 139.155C14.5064 139.155 14.5062 139.155 14.506 139.155C14.5059 139.155 14.5059 139.155 14.3803 142.152Z" fill="#9E77ED"/>
</svg>
