<svg width="24" height="24" viewBox="0 0 24 24" fill="none" xmlns="http://www.w3.org/2000/svg">
<g clip-path="url(#clip0_1_9150)">
<path d="M23.3108 8.00156H0.688965C0.937402 7.30312 1.24678 6.63281 1.6124 6C3.68896 2.41875 7.57022 0 11.9999 0C16.4296 0 20.3108 2.41406 22.3874 6C22.7577 6.63281 23.0671 7.29844 23.3108 8.00156Z" fill="#CD1225"/>
<path d="M23.3111 15.9984C23.0627 16.6969 22.7533 17.3625 22.3877 17.9953C20.3111 21.5812 16.4299 24 12.0002 24C7.56582 24 3.68926 21.5859 1.60801 18C1.24238 17.3672 0.933008 16.6969 0.68457 16.0031H23.3111V15.9984Z" fill="black"/>
<path d="M24 12C24 13.4016 23.7562 14.7516 23.3109 15.9985H0.689062C0.24375 14.7516 0 13.4016 0 12C0 10.5985 0.24375 9.24846 0.689062 8.00159H23.3156C23.7563 9.24846 24 10.5985 24 12Z" fill="white"/>
<path d="M10.6027 15.075C10.5934 15.0703 10.5793 15.0656 10.5699 15.0703L10.523 15.0843C10.509 15.089 10.4996 15.1078 10.5043 15.1218C10.5043 15.1218 10.523 15.1453 10.5371 15.1453L10.5137 15.2296L10.3824 15.1968L10.4293 15.0562C10.434 15.0468 10.4293 15.0328 10.4293 15.0328L10.3871 15.0187L10.3402 15.0328C10.3402 15.0328 10.3121 15.0562 10.3168 15.075C10.3215 15.089 10.3309 15.0984 10.3309 15.0984L10.3168 15.1875L10.2277 15.164L10.3215 14.85C10.3215 14.85 10.3215 14.8218 10.3074 14.8171L10.2699 14.8218C10.2605 14.8312 10.2043 14.8359 10.1574 14.8312C10.1434 14.8312 10.1246 14.8406 10.1246 14.8406C10.1199 14.8734 10.134 14.8921 10.134 14.8921C10.1668 14.8968 10.2043 14.8968 10.2418 14.8921L10.1949 15.0421C10.0918 15.0468 10.0496 15.1359 10.0496 15.1359C10.0449 15.15 10.0449 15.1593 10.0449 15.164L10.0637 15.1828L10.1715 15.2156H10.1762V15.2203L10.3121 15.2531C10.3168 15.2578 10.3168 15.2578 10.3168 15.2578L10.3309 15.2625H10.3355L10.5137 15.3093H10.523C10.5371 15.3093 10.5512 15.3 10.5559 15.2859L10.6027 15.1171V15.075ZM10.1715 15.1359L10.134 15.1218C10.1434 15.1125 10.1621 15.0984 10.1621 15.0984L10.1715 15.1359Z" fill="#BF920D"/>
<path d="M11.2546 14.9953C11.2452 14.9812 11.2265 14.9812 11.2124 14.9953L11.189 15.0187C11.1843 15.0234 11.1796 15.0328 11.1796 15.0328V15.1828C11.1796 15.3047 11.1374 15.4078 11.128 15.4219C11.128 15.4219 11.114 15.4312 11.1046 15.4312C11.1046 15.4312 11.1046 15.3984 11.1093 15.3797C11.1093 15.3797 11.1093 15.3703 11.1046 15.3656C11.0999 15.3515 11.0765 15.3281 11.039 15.3281H11.0296C11.0249 15.314 11.0202 15.3 11.0108 15.2812L11.0858 15.2578C11.0858 15.2578 11.0999 15.2437 11.1046 15.2344C11.1093 15.225 11.1046 15.2109 11.0999 15.2062L11.053 15.1547L11.0015 15.089C10.9968 15.0797 10.9874 15.0797 10.9874 15.0797C10.9687 15.075 10.9593 15.0797 10.9593 15.0797L10.9171 15.1219C10.9077 15.1312 10.8702 15.15 10.8374 15.1687C10.828 15.1734 10.8233 15.1828 10.8233 15.1922L10.8327 15.2203L10.8983 15.2765C10.8843 15.2906 10.8702 15.3047 10.8515 15.3094C10.8233 15.314 10.7718 15.3 10.7343 15.2953C10.7437 15.2344 10.7155 15.1828 10.7155 15.1828C10.7155 15.1828 10.6874 15.1594 10.6733 15.1687C10.6593 15.1781 10.6499 15.1969 10.6499 15.1969C10.6499 15.1969 10.6827 15.2719 10.664 15.3187C10.6499 15.3515 10.6124 15.3703 10.5562 15.3844L10.5327 15.4219C10.5374 15.4359 10.5515 15.4453 10.5655 15.4453L10.5702 15.4406C10.6405 15.4265 10.6874 15.3984 10.7155 15.3515C10.7483 15.3609 10.814 15.375 10.8562 15.3703C10.8983 15.3656 10.9312 15.3375 10.9499 15.3094C10.9593 15.3234 10.964 15.3328 10.964 15.3328C10.964 15.3937 11.0062 15.3937 11.0343 15.3937H11.039C11.0343 15.4359 11.0343 15.4781 11.0671 15.4922C11.0765 15.4969 11.0905 15.5015 11.0905 15.5015C11.1233 15.5015 11.1515 15.4922 11.1702 15.4734C11.1983 15.4453 11.2405 15.3187 11.2405 15.1875V15.0609L11.2546 15.0469C11.264 15.0234 11.264 15.0047 11.2546 14.9953ZM10.9546 15.2297L10.9077 15.1922C10.9312 15.1781 10.9546 15.164 10.9546 15.164L10.9733 15.15L11.0015 15.1875V15.1922L11.0155 15.2109L10.9546 15.2297Z" fill="#BF920D"/>
<path d="M11.3436 15.3891L11.367 15.0937C11.3764 15.0984 11.3905 15.0937 11.3998 15.0844C11.4139 15.075 11.4139 15.0516 11.3998 15.0375L11.367 15.0047L11.3342 14.9953C11.3201 15 11.3108 15.0094 11.3108 15.0094L11.2826 15.3797C11.278 15.3984 11.292 15.4125 11.3108 15.4125C11.3295 15.4219 11.3436 15.4078 11.3436 15.3891Z" fill="#BF920D"/>
<path d="M12.2763 15.4219L12.2435 15.2859C12.2388 15.2766 12.2341 15.2719 12.2294 15.2672C12.2294 15.2672 12.2106 15.2625 12.2013 15.2625C12.2013 15.2625 12.0888 15.3047 12.0747 15.3984H12.0278L12.0185 15.3141C12.0138 15.3 12.0044 15.2859 11.9903 15.2859L11.6716 15.2719V15.2344L11.6575 15.2109L11.6294 15.2062L11.5919 15.2203C11.5778 15.225 11.5685 15.2437 11.5731 15.2625C11.5731 15.2625 11.5966 15.2859 11.606 15.2812V15.3844L11.5544 15.3797C11.545 15.3281 11.5075 15.2812 11.5075 15.2812C11.4935 15.2672 11.4747 15.2672 11.4747 15.2672C11.4513 15.2906 11.4466 15.3094 11.4606 15.3234C11.47 15.3375 11.5075 15.3891 11.4981 15.4266C11.4888 15.4594 11.4372 15.4875 11.3528 15.4969C11.3341 15.5016 11.3247 15.5156 11.3247 15.5297C11.3247 15.5297 11.3388 15.5578 11.3528 15.5578H11.3575C11.4653 15.5437 11.531 15.5062 11.5497 15.4453L11.5544 15.4406L11.8497 15.4641C11.8544 15.4875 11.8591 15.5203 11.8825 15.5391C11.8919 15.5484 11.9106 15.5625 11.9341 15.5625C11.9388 15.5625 11.9435 15.5578 11.9435 15.5578C12.0044 15.5484 12.0278 15.5016 12.0278 15.4594H12.2435L12.2669 15.45L12.2763 15.4219ZM11.9388 15.4969C11.9294 15.4969 11.9247 15.4922 11.9247 15.4922C11.9247 15.4922 11.9106 15.45 11.9106 15.4359C11.9106 15.4359 11.9013 15.4031 11.8825 15.4031L11.6763 15.3891V15.3375L11.9622 15.3516L11.9716 15.4359C11.9669 15.4359 11.9763 15.4922 11.9388 15.4969ZM12.1403 15.4031C12.1497 15.375 12.1731 15.3562 12.1919 15.3422L12.206 15.4031H12.1403Z" fill="#BF920D"/>
<path d="M12.6794 15.2109H12.6513C12.6372 15.2203 12.6185 15.225 12.6091 15.2297C12.6091 15.2297 12.581 15.2437 12.581 15.2578L12.6138 15.2906C12.6185 15.2906 12.6231 15.2906 12.6231 15.2906L12.6372 15.3703L12.5435 15.3844L12.506 15.0469C12.506 15.0375 12.4966 15.0234 12.4966 15.0234C12.4731 15.014 12.4638 15.0187 12.4497 15.0281L12.4216 15.0562C12.4075 15.0656 12.4075 15.089 12.4169 15.0984C12.4263 15.1078 12.4356 15.1125 12.4356 15.1125L12.4638 15.2719C12.3935 15.3047 12.356 15.3515 12.356 15.4219V15.4265C12.356 15.4265 12.356 15.4406 12.3606 15.45C12.3606 15.45 12.37 15.464 12.3935 15.464C12.4169 15.464 12.4497 15.4594 12.5153 15.4547L12.6653 15.4312L12.6935 15.3984V15.239C12.6935 15.225 12.6888 15.2156 12.6794 15.2109ZM12.4216 15.3984C12.4263 15.3797 12.4356 15.3562 12.4731 15.3375L12.4778 15.389C12.4544 15.3984 12.4356 15.3984 12.4216 15.3984Z" fill="#BF920D"/>
<path d="M12.8062 15.2343C12.7921 15.2249 12.7734 15.2249 12.764 15.239C12.764 15.239 12.7546 15.2718 12.7687 15.2859C12.7687 15.2859 12.853 15.3515 12.8296 15.4171C12.8015 15.4828 12.7359 15.4921 12.7359 15.4921C12.7124 15.4968 12.6984 15.5062 12.703 15.5249C12.703 15.5249 12.7171 15.5531 12.7359 15.5531C12.7359 15.5531 12.8484 15.5437 12.8859 15.4359C12.9234 15.3328 12.8109 15.239 12.8062 15.2343Z" fill="#BF920D"/>
<path d="M13.9404 15.1359L13.8139 15.1593C13.7998 15.1078 13.767 14.9906 13.7295 14.9203C13.7014 14.8593 13.6639 14.8453 13.6311 14.8406C13.5889 14.8312 13.5467 14.8547 13.5467 14.8547C13.5186 14.8828 13.5186 14.9015 13.5326 14.9156H13.5748C13.5748 14.9156 13.6029 14.9015 13.6217 14.9062C13.6451 14.9109 13.6592 14.9297 13.6686 14.9484C13.7014 15.0234 13.7342 15.1265 13.7482 15.1781L13.6873 15.2062C13.6873 15.2015 13.6826 15.2015 13.6826 15.2015C13.5654 15.15 13.5514 15.1593 13.542 15.1734C13.5326 15.1828 13.5045 15.2203 13.4904 15.2437L13.4576 15.2531C13.4482 15.2062 13.4154 15.1359 13.3592 15.1359C13.3592 15.1359 13.317 15.1359 13.2936 15.1406C13.2889 15.1125 13.2842 15.089 13.2748 15.0609C13.2748 15.0609 13.2561 15.0328 13.2373 15.0375C13.2232 15.0422 13.2092 15.0562 13.2139 15.075C13.2186 15.0984 13.2232 15.1265 13.2279 15.1547C13.2186 15.1593 13.2092 15.164 13.2092 15.164C13.1811 15.1828 13.1529 15.2109 13.1482 15.3L13.1014 15.3093C13.092 15.2297 13.0826 15.2156 13.0826 15.2156C13.0545 15.2062 13.0404 15.2062 13.0404 15.2062L12.9232 15.2906C12.9139 15.3 12.9092 15.3093 12.9092 15.3093L12.9232 15.3703C12.9279 15.3843 12.9467 15.3984 12.9607 15.3937L13.0404 15.3797C13.0311 15.4406 12.9701 15.4547 12.9701 15.4547C12.9467 15.4593 12.9373 15.4687 12.9373 15.4687C12.9373 15.5015 12.9514 15.5156 12.9701 15.5156C12.9795 15.5156 13.0311 15.5015 13.0639 15.464C13.092 15.4359 13.1061 15.4031 13.1061 15.3656L13.2748 15.3375C13.2889 15.375 13.2982 15.4031 13.3076 15.4125C13.3076 15.4125 13.3404 15.4359 13.3592 15.4359C13.3592 15.4359 13.392 15.4312 13.4107 15.4265C13.4107 15.4265 13.4623 15.4031 13.4623 15.3656V15.3047L13.4904 15.2953L13.4998 15.3C13.5279 15.3093 13.6029 15.3328 13.6357 15.3234C13.6686 15.314 13.6779 15.2812 13.6826 15.2531L13.7811 15.2156L13.9311 15.1875C13.9498 15.1828 13.9592 15.164 13.9592 15.15C13.9732 15.1453 13.9592 15.1359 13.9404 15.1359ZM12.9936 15.3328L13.0451 15.2953L13.0498 15.3234L12.9936 15.3328ZM13.2232 15.2953C13.2279 15.239 13.242 15.2297 13.242 15.2297L13.2514 15.2203C13.2561 15.2437 13.2607 15.2672 13.2654 15.2859L13.2232 15.2953ZM13.3123 15.2015C13.3264 15.2015 13.3451 15.1968 13.3451 15.1968C13.3732 15.1968 13.3873 15.225 13.3967 15.2578L13.3264 15.2718C13.3217 15.2531 13.317 15.2297 13.3123 15.2015ZM13.4201 15.3656C13.4201 15.3656 13.3967 15.3797 13.3779 15.3797L13.3686 15.375C13.3639 15.3703 13.3592 15.3515 13.3498 15.3328L13.4201 15.3234V15.3656ZM13.6311 15.2718C13.6311 15.2718 13.5889 15.2672 13.5561 15.2578C13.5654 15.2484 13.5748 15.2343 13.5795 15.225C13.5936 15.2297 13.6123 15.239 13.6357 15.2484C13.6404 15.2578 13.6311 15.2718 13.6311 15.2718Z" fill="#BF920D"/>
<path d="M12.3844 15.1125C12.3844 15.0891 12.3656 15.0703 12.3656 15.0703C12.3234 15.0703 12.3047 15.0891 12.3047 15.1125C12.3047 15.1312 12.3234 15.15 12.3469 15.15C12.3469 15.15 12.3844 15.1312 12.3844 15.1125Z" fill="#BF920D"/>
<path d="M10.134 14.9906C10.134 14.9906 10.1715 14.9765 10.1715 14.9531C10.1715 14.9297 10.1527 14.9156 10.1527 14.9156C10.1105 14.9156 10.0918 14.9297 10.0918 14.9531C10.0918 14.9765 10.1152 14.9906 10.134 14.9906Z" fill="#BF920D"/>
<path d="M10.1527 15.2297C10.134 15.2297 10.1152 15.2484 10.1152 15.2672C10.1152 15.2906 10.134 15.3047 10.1527 15.3047C10.1762 15.3047 10.1902 15.2906 10.1902 15.2672C10.1902 15.2531 10.1715 15.2297 10.1527 15.2297Z" fill="#BF920D"/>
<path d="M10.2606 15.2672C10.2372 15.2672 10.2231 15.2812 10.2231 15.2812C10.2231 15.3234 10.2372 15.3421 10.2606 15.3421C10.2841 15.3421 10.2981 15.3281 10.2981 15.3047C10.2981 15.3047 10.2794 15.2672 10.2606 15.2672Z" fill="#BF920D"/>
<path d="M10.4247 15.314C10.4013 15.314 10.3872 15.3281 10.3872 15.3515C10.3872 15.375 10.4013 15.389 10.4247 15.389C10.4481 15.389 10.4622 15.375 10.4622 15.3515C10.4622 15.3281 10.4435 15.314 10.4247 15.314Z" fill="#BF920D"/>
<path d="M12.398 15.2109C12.398 15.1922 12.3793 15.1734 12.3605 15.1734C12.3371 15.1734 12.3184 15.1922 12.3184 15.2109C12.3184 15.2343 12.3371 15.2531 12.3605 15.2531C12.3793 15.2531 12.398 15.2343 12.398 15.2109Z" fill="#BF920D"/>
<path d="M12.4777 15.4922C12.4543 15.4922 12.4355 15.5062 12.4355 15.5297C12.4355 15.5531 12.4543 15.5672 12.4777 15.5672C12.4777 15.5672 12.5152 15.5531 12.5152 15.5297C12.5152 15.5062 12.4965 15.4922 12.4777 15.4922Z" fill="#BF920D"/>
<path d="M12.5715 15.4828C12.548 15.4828 12.5293 15.4969 12.5293 15.4969C12.5293 15.539 12.548 15.5578 12.5715 15.5578C12.5902 15.5578 12.609 15.5437 12.609 15.5203C12.609 15.525 12.5902 15.4828 12.5715 15.4828Z" fill="#BF920D"/>
<path d="M13.828 15.2812C13.8093 15.2812 13.7905 15.3 13.7905 15.3234C13.7905 15.3422 13.8093 15.3609 13.828 15.3609C13.8515 15.3609 13.8702 15.3422 13.8702 15.3234C13.8702 15.3 13.8515 15.2812 13.828 15.2812Z" fill="#BF920D"/>
<path d="M14.8029 14.6578V14.6437C14.7982 14.5828 14.7982 14.5265 14.7982 14.4703L14.7842 14.1375C14.7795 13.9875 14.7701 13.8422 14.7654 13.6922L14.6623 11.3953C14.6576 11.2172 14.6482 11.039 14.6389 10.8609L14.5967 9.97028C14.5873 9.8156 14.4982 9.5531 14.292 9.51091C13.9592 9.44997 13.6686 9.60466 13.4154 9.74528C13.3592 9.77341 13.3029 9.80622 13.2561 9.82966C13.1436 9.88122 12.9279 9.91403 12.7029 9.9281C12.6748 9.88122 12.642 9.82497 12.6186 9.75466C12.5904 9.68903 12.567 9.61403 12.5529 9.52497C12.5201 9.31872 12.5248 9.1406 12.5295 9.00466C12.5295 8.95778 12.5342 8.91091 12.5342 8.86872C12.5342 8.69528 12.5061 8.55466 12.4498 8.45622C12.4498 8.45622 12.4451 8.44216 12.4404 8.43747C12.3842 8.34372 12.3045 8.28747 12.2014 8.26403C12.1123 8.24997 12.0467 8.23122 11.9998 8.22185C11.8826 8.19372 11.8592 8.18903 11.8217 8.20778C11.7982 8.21716 11.7889 8.23122 11.7889 8.23122C11.7139 8.22653 11.5592 8.18903 11.4561 8.21247C11.3811 8.22653 11.3154 8.25466 11.2826 8.33903L11.2779 8.3531L11.2732 8.36716C11.2592 8.40935 11.2592 8.4656 11.2639 8.53591V8.5406V8.54528V8.54997L11.2686 8.55466L11.2732 8.55935V8.56403L11.2779 8.56872L11.2826 8.57341L11.2873 8.5781H11.292H11.2967H11.3014H11.3061H11.3107L11.3154 8.57341L11.3201 8.56872L11.3248 8.56403L11.3295 8.55935C11.3295 8.55466 11.3295 8.55466 11.3295 8.55466C11.3342 8.54997 11.3436 8.54997 11.3623 8.5406L11.3951 8.52653C11.4186 8.51716 11.442 8.51716 11.442 8.51716C11.5264 8.53591 11.5779 8.60153 11.6154 8.65778C11.6389 8.6906 11.6482 8.72341 11.6576 8.77028C11.667 8.8031 11.667 8.83591 11.6717 8.87341C11.6764 8.97185 11.6717 9.05153 11.6529 9.12185L11.6482 9.14997C11.6061 9.31403 11.517 9.6656 11.3201 9.93747C11.0904 9.92341 10.8654 9.89528 10.7529 9.83903C10.7014 9.8156 10.6498 9.78747 10.5936 9.75466C10.3357 9.61403 10.0451 9.45935 9.71699 9.52028C9.50606 9.56247 9.41699 9.82028 9.40762 9.97966L9.37012 10.8703C9.36074 11.0484 9.35605 11.2265 9.34668 11.4047L9.24824 13.7015C9.24356 13.8515 9.23418 13.9968 9.22949 14.1468L9.21543 14.4797C9.21074 14.5406 9.21074 14.5968 9.21074 14.6531V14.6672C9.20605 14.6765 9.20605 14.6859 9.20605 14.6859C9.20605 14.6859 9.22949 14.7 9.23418 14.7L9.24824 14.6953L9.25293 14.6906L9.58105 14.3953C9.61855 14.3672 9.65606 14.3297 9.69356 14.2968L9.7123 14.2828L10.1389 13.8984L10.1436 13.8937L10.1576 13.8797L10.3732 13.6875C10.4201 13.6453 10.467 13.6031 10.5139 13.5562L10.5326 13.5375C10.5842 13.4906 10.6357 13.4437 10.6873 13.4015L10.3967 14.4281C10.3498 14.414 10.2982 14.3953 10.2514 14.3765C10.2139 14.3625 10.1717 14.3672 10.1389 14.3906L10.1342 14.3953L10.1295 14.4C10.1014 14.4047 9.96543 14.4328 9.90449 14.5359C9.87637 14.5828 9.86699 14.6484 9.88574 14.714C9.87637 14.7375 9.87168 14.7656 9.8623 14.7984C9.81074 14.8031 9.72168 14.8406 9.63731 14.9953H9.57168C9.57168 14.9953 9.53887 15.0093 9.53887 15.0281L9.56699 15.0656L9.61855 15.0797C9.62793 15.1406 9.65137 15.2859 9.7498 15.3375C9.7498 15.3375 9.75449 15.3656 9.75918 15.3843C9.76855 15.4547 9.78262 15.5484 9.90449 15.5953C10.0545 15.6562 11.0154 15.8203 11.8123 15.8156C11.9436 15.8156 12.0748 15.8156 12.2014 15.8156H12.2576C13.0451 15.8156 13.9639 15.6562 14.1139 15.5953C14.2357 15.5484 14.2498 15.4547 14.2592 15.3843C14.2639 15.3656 14.2639 15.3468 14.2639 15.3468C14.3623 15.2859 14.3904 15.1406 14.3998 15.0797L14.4514 15.0656C14.4654 15.0609 14.4795 15.0422 14.4795 15.0281C14.4748 15.0093 14.4607 14.9953 14.442 14.9953H14.3764C14.292 14.8406 14.2029 14.8031 14.1514 14.7984C14.1467 14.7656 14.1373 14.7375 14.1279 14.714C14.1467 14.6484 14.1373 14.5828 14.1092 14.5359C14.0482 14.4328 13.9123 14.4047 13.8842 14.4V14.3953L13.8795 14.3906C13.8514 14.3672 13.8045 14.3625 13.7717 14.3765C13.7201 14.3953 13.6732 14.414 13.6264 14.4281L13.3357 13.4015C13.392 13.4531 13.4529 13.5047 13.5092 13.5562C13.5514 13.5937 13.5889 13.6312 13.6311 13.6687C13.6404 13.6734 13.6451 13.6781 13.6451 13.6781L13.8842 13.8937L13.8889 13.8984L14.0107 14.0109L14.3295 14.2968C14.367 14.3297 14.4045 14.3672 14.442 14.3953L14.7701 14.6906V14.6953C14.7748 14.7 14.7795 14.7 14.7795 14.7L14.8076 14.6906C14.7982 14.6812 14.8076 14.6625 14.8029 14.6578ZM11.9529 8.36716C11.9811 8.36716 12.0092 8.3906 12.0092 8.41872C12.0092 8.44685 11.9811 8.47028 11.9529 8.47028C11.9248 8.47028 11.9014 8.44685 11.9014 8.41872C11.8967 8.39528 11.9248 8.36716 11.9529 8.36716ZM11.3342 9.98435C11.3482 9.97028 11.3623 9.95153 11.3717 9.93278C11.3811 9.91403 11.3951 9.89997 11.4045 9.88122C11.4139 9.86247 11.4279 9.84841 11.4373 9.82966C11.4373 9.82966 11.4467 9.81091 11.4514 9.80153L11.4654 9.77341C11.4748 9.74997 11.4842 9.73122 11.4842 9.73122C11.4982 9.7031 11.4982 9.69841 11.5029 9.69372L11.517 9.66091C11.5217 9.64685 11.5264 9.63747 11.5311 9.6281C11.5311 9.62341 11.5311 9.62341 11.5311 9.62341L11.5404 9.60466C11.5451 9.5906 11.5498 9.57653 11.5545 9.56247C11.5545 9.56247 11.5639 9.54841 11.5639 9.53903C11.5639 9.53903 11.5732 9.51091 11.5779 9.50153C11.5873 9.47341 11.5967 9.4406 11.6061 9.41716C11.6107 9.40778 11.6107 9.4031 11.6107 9.4031L11.6201 9.37028L11.6248 9.34685C11.6482 9.26716 11.667 9.20153 11.6811 9.15466L11.6857 9.12653C11.7045 9.05153 11.7092 8.96716 11.7045 8.86403C11.6998 8.82653 11.6998 8.78903 11.6904 8.75153L11.6857 8.72341C11.7139 8.69997 11.7654 8.71403 11.8498 8.71403C11.6717 8.44685 11.5686 8.42341 11.4748 8.39997C11.3951 8.38591 11.3576 8.43747 11.3389 8.47497C11.3342 8.47966 11.3248 8.48435 11.3248 8.48435C11.3248 8.48435 11.3107 8.48903 11.3061 8.49372C11.3014 8.4656 11.3061 8.43278 11.3107 8.40935L11.3154 8.38591V8.37653L11.3295 8.34841C11.3482 8.32966 11.3764 8.32028 11.3998 8.3156C11.4373 8.31091 11.4701 8.30622 11.5076 8.30622C11.5357 8.30622 11.5592 8.31091 11.5873 8.33435C11.6342 8.37653 11.6857 8.41403 11.7373 8.44685C11.7701 8.47028 11.8217 8.49841 11.8592 8.49841C11.8592 8.49841 11.8826 8.52185 11.892 8.53122C11.9061 8.54528 11.9201 8.55466 11.9389 8.55466C11.9717 8.55935 11.9998 8.5406 12.0092 8.51247C12.0186 8.49841 12.0467 8.48435 12.0607 8.47966C12.0889 8.47028 12.1217 8.45622 12.1498 8.45153C12.1826 8.44216 12.2201 8.43747 12.2576 8.43747C12.2951 8.43747 12.3467 8.43747 12.3748 8.47028C12.3748 8.47028 12.3842 8.47966 12.3842 8.48435C12.3842 8.48435 12.3982 8.51716 12.4076 8.53591C12.417 8.56403 12.4264 8.59216 12.4357 8.62028C12.4545 8.69528 12.4592 8.77028 12.4639 8.84528V8.87341C12.4639 8.9156 12.4592 8.95778 12.4592 9.00466C12.4498 9.14528 12.4451 9.32341 12.4826 9.53903C12.5107 9.71247 12.5717 9.83903 12.6279 9.93747C12.6373 9.95622 12.6467 9.97497 12.6561 9.98903C12.6701 10.0078 12.6842 10.0265 12.6936 10.0406C12.6139 10.0359 12.5576 10.0172 12.5201 9.99372C12.4873 9.97966 12.4686 9.96091 12.4686 9.96091C12.4592 9.95153 12.4592 9.94685 12.4592 9.94685C12.4498 9.92341 12.4404 9.89997 12.4311 9.88122C12.4029 9.81091 12.3701 9.73591 12.3467 9.66091C12.2951 9.48278 12.2717 9.15466 12.2717 9.15466C12.2717 9.13591 12.2576 9.12653 12.2576 9.12653C12.2295 9.12653 12.2154 9.1406 12.2201 9.15466C12.2201 9.15466 12.2342 9.49216 12.2951 9.67497C12.3186 9.74997 12.3467 9.82497 12.3795 9.89997L12.3936 9.94216C12.4029 9.96091 12.4076 9.97966 12.4076 9.97966C12.4311 10.0406 12.4451 10.0828 12.4545 10.1156C12.3795 10.1015 12.2764 10.05 12.2061 9.99841C12.1826 9.98435 12.1639 9.9656 12.1545 9.95153V9.94216C12.1076 9.74997 12.1123 9.13122 12.1123 9.13122C12.1123 9.10778 12.1029 9.09841 12.1029 9.09841C12.0748 9.09841 12.0607 9.10778 12.0607 9.12653C12.0607 9.15466 12.0607 9.73122 12.1029 9.94216C12.1029 9.94685 12.1076 9.95153 12.1076 9.95153C12.1076 9.95153 12.0936 9.97966 12.0795 9.99841C12.0654 10.0172 12.0467 10.0359 12.0139 10.0687C12.0045 10.0781 11.9951 10.0922 11.9951 10.0922C11.9764 10.1015 11.967 10.0968 11.967 10.0968C11.9342 10.0687 11.9014 10.0359 11.8732 10.0031C11.8592 9.98435 11.8451 9.9656 11.8311 9.95153C11.9623 9.74997 11.9857 9.47341 11.9998 9.11716C11.9998 9.11716 11.9904 9.08903 11.9764 9.08903L11.9482 9.11716C11.9342 9.48278 11.9061 9.75935 11.7654 9.95153C11.7514 9.97028 11.7373 9.98903 11.7373 9.98903C11.6811 10.05 11.6295 10.0875 11.5686 10.1203C11.5732 10.0875 11.5826 10.0453 11.592 10.0031C11.592 10.0031 11.6014 9.97028 11.6014 9.95153L11.6061 9.93747C11.7045 9.80153 11.8029 9.56716 11.8639 9.14997C11.8639 9.14997 11.8592 9.12185 11.8404 9.11716C11.8404 9.11716 11.8123 9.12653 11.8123 9.1406C11.742 9.60935 11.6342 9.83903 11.5264 9.95153C11.5029 9.97497 11.4842 9.99372 11.4654 10.0031C11.4326 10.0265 11.3998 10.0406 11.367 10.05C11.3342 10.0593 11.3061 10.064 11.2779 10.064C11.3014 10.0359 11.3201 10.0078 11.3342 9.98435ZM10.9592 13.2937L11.0764 13.6031L11.0904 13.6125C11.0951 13.6172 11.1045 13.6125 11.1045 13.6125L11.3061 13.3406L11.4045 13.8328C11.3061 13.9734 11.2264 14.0953 11.1842 14.1515C11.1654 14.0953 11.1279 13.9828 11.067 13.8187C11.067 13.8187 11.0576 13.8093 11.0529 13.8047C11.0436 13.8047 11.0389 13.8093 11.0389 13.8093L10.8279 14.1234L10.6686 13.5843L10.9592 13.2937ZM13.0498 14.55L12.8811 14.3203C12.8764 14.3156 12.8717 14.3109 12.8717 14.3109L12.8482 14.325L12.7498 14.5734C12.6842 14.5781 12.6232 14.5781 12.5717 14.5734L12.5061 14.2781L12.5857 13.8843C12.8154 14.2125 12.8154 14.2125 12.8342 14.2078L12.8482 14.189C12.8529 14.1703 12.9139 13.9922 12.9607 13.8609L13.1623 14.1609L13.0498 14.55ZM13.1904 14.2078L13.3826 14.4937C13.2795 14.5172 13.1811 14.5359 13.0873 14.5453L13.1904 14.2078ZM13.0076 14.5593C12.9326 14.5687 12.8576 14.5734 12.7967 14.5734L12.8764 14.3718L13.0076 14.5593ZM12.1967 14.6297C12.1357 14.6297 12.0889 14.6484 12.0607 14.6859C12.0467 14.7047 12.0373 14.7281 12.0326 14.7562H11.9576C11.9529 14.7281 11.9482 14.7047 11.9342 14.6859C11.9061 14.6484 11.8592 14.6297 11.7982 14.6297C11.7842 14.6062 11.7514 14.5781 11.6857 14.5687C11.6623 14.564 11.6201 14.564 11.5592 14.5687C11.5311 14.5734 11.5029 14.5734 11.4654 14.5734L11.5123 14.3578L11.6061 14.5078C11.6107 14.5172 11.6248 14.5218 11.6248 14.5218L11.7842 14.3812L11.7889 14.3718L11.9061 13.4625L11.8498 14.3765L11.8545 14.3906L11.9857 14.5453C11.9951 14.5547 12.0092 14.5547 12.0092 14.5547L12.1451 14.3953L12.1498 14.3812L12.0936 13.4672L12.2107 14.3765L12.2154 14.3859L12.3654 14.5218C12.3748 14.5312 12.3889 14.5265 12.3889 14.5265L12.4873 14.3672L12.5342 14.5828C12.5014 14.5781 12.4732 14.5781 12.4451 14.5781C12.3842 14.5734 12.3467 14.5734 12.3232 14.5781C12.2482 14.5781 12.2154 14.6062 12.1967 14.6297ZM12.2201 14.7562C12.2248 14.7562 12.2295 14.7703 12.2342 14.7797C12.2342 14.7797 12.2529 14.8078 12.267 14.8172L12.2623 14.8312C12.2529 14.8593 12.2248 14.8781 12.192 14.8968L12.1639 14.9203C12.1311 14.939 12.1217 14.9531 12.1123 14.9718C12.0889 14.9109 12.0795 14.8687 12.0701 14.8312C12.0654 14.8031 12.0654 14.7797 12.0701 14.7562C12.0748 14.7328 12.0795 14.7234 12.0889 14.7093C12.1123 14.6765 12.1498 14.6672 12.1779 14.6672C12.1732 14.6906 12.1779 14.7093 12.192 14.7187L12.2201 14.7562ZM11.9248 14.8265C11.9201 14.864 11.9061 14.9109 11.8826 14.9672C11.8732 14.9484 11.8639 14.9343 11.8311 14.9156C11.8217 14.9062 11.8076 14.9015 11.7982 14.8922C11.7701 14.8734 11.7373 14.8593 11.7326 14.8265L11.7279 14.8125L11.7607 14.775L11.7748 14.7515C11.7795 14.7515 11.7795 14.7515 11.7795 14.7515L11.8029 14.7187C11.817 14.7047 11.8217 14.6859 11.8217 14.6672C11.8498 14.6672 11.8873 14.6765 11.9107 14.7093C11.9201 14.7187 11.9248 14.7328 11.9295 14.7562C11.9248 14.775 11.9248 14.7984 11.9248 14.8265ZM11.1514 14.325L11.1373 14.3109C11.1279 14.3109 11.1232 14.3156 11.1232 14.3156L10.9498 14.55L10.8373 14.1656L11.0436 13.8656C11.0904 13.9968 11.1514 14.175 11.1561 14.1937L11.1748 14.2125C11.1889 14.2172 11.1936 14.2172 11.4232 13.889L11.5029 14.2828L11.4373 14.5781C11.3857 14.5828 11.3201 14.5828 11.2592 14.5781L11.1514 14.325ZM11.2076 14.5734C11.142 14.5687 11.067 14.564 10.992 14.5593L11.1279 14.3718L11.2076 14.5734ZM10.9123 14.55C10.8232 14.5406 10.7201 14.5218 10.617 14.4984L10.8092 14.2125L10.9123 14.55ZM11.4467 13.8375L11.4514 13.8328C11.5264 13.725 11.6014 13.6172 11.6529 13.5468L11.517 14.1843L11.4467 13.8375ZM11.6482 12.8062C11.6904 12.8484 11.7326 12.8906 11.7795 12.9328L11.6857 13.3734L11.5451 12.9328L11.6482 12.8062ZM11.3529 13.1062L11.3248 12.8156C11.3857 12.7547 11.4467 12.7031 11.5076 12.6515C11.5451 12.6937 11.5826 12.7359 11.6248 12.7781L11.3529 13.1062ZM12.4545 12.9328L12.3139 13.3734L12.2201 12.9328C12.267 12.8906 12.3092 12.8484 12.3514 12.8062L12.4545 12.9328ZM12.3795 12.7781C12.4217 12.7359 12.4592 12.6937 12.4967 12.6468C12.5576 12.6984 12.6139 12.75 12.6795 12.8109L12.6514 13.1015L12.3795 12.7781ZM12.3467 13.5422C12.3936 13.6172 12.4686 13.7203 12.5482 13.8281L12.5529 13.8328L12.4826 14.175L12.3467 13.5422ZM12.5623 13.7859C12.4826 13.6687 12.4029 13.5468 12.3279 13.4484L12.4826 12.9703L12.642 13.1718C12.642 13.1718 12.6561 13.1812 12.6607 13.1765L12.6748 13.1625L12.7076 12.8531C12.8389 12.9703 12.9795 13.0968 13.1248 13.2281C13.1389 13.2422 13.1576 13.2609 13.1764 13.275C13.1764 13.275 13.2092 13.3031 13.2232 13.3172L13.2373 13.3312C13.2373 13.3312 13.2514 13.3453 13.2607 13.35L13.3029 13.5093L13.0357 13.2468C13.0311 13.2422 13.0264 13.2375 13.0264 13.2375C13.0264 13.2375 13.0076 13.2468 13.0029 13.2515L12.8857 13.5515L12.6842 13.2797L12.6654 13.2703L12.6467 13.2843L12.5623 13.7859ZM13.2186 13.2234C13.2045 13.2093 13.1857 13.1953 13.1717 13.1765C13.1717 13.1765 13.1576 13.1672 13.1482 13.1625L13.0826 11.5687C13.1248 11.4328 13.1529 11.2922 13.1764 11.1468L13.2607 13.2656C13.2467 13.2562 13.2326 13.2375 13.2186 13.2234ZM13.0779 11.4422C12.9654 11.8781 12.7592 12.2765 12.4639 12.6234C12.3795 12.7218 12.2857 12.8156 12.1873 12.9047V12.9093C12.1826 12.914 12.1732 12.9234 12.1732 12.9234L12.1451 12.9468L12.1029 12.9797C12.0701 13.0078 12.0326 13.0359 11.9998 13.064C11.967 13.0359 11.9295 13.0078 11.8967 12.9797C11.8826 12.9703 11.8686 12.9562 11.8545 12.9468L11.8311 12.9281C11.8217 12.9234 11.817 12.914 11.8076 12.9093L11.8029 12.9047C11.7045 12.8156 11.6107 12.7172 11.5264 12.6234C11.2311 12.2765 11.0248 11.8781 10.9123 11.4422C10.8654 11.264 10.8373 11.0812 10.8232 10.889L10.8326 10.6453C11.4936 10.6218 11.8498 10.4062 11.9623 10.3265C11.9764 10.3172 11.9857 10.3125 11.9857 10.3125C11.9857 10.3125 12.0092 10.3218 12.0186 10.3265C12.1311 10.4062 12.492 10.6218 13.1482 10.6453L13.1576 10.889C13.1529 11.0812 13.1248 11.264 13.0779 11.4422ZM10.917 11.5734L10.8514 13.1672C10.8514 13.1672 10.8373 13.1812 10.8326 13.1812C10.8186 13.1953 10.7998 13.2093 10.7998 13.2093C10.767 13.2375 10.7529 13.2562 10.7389 13.2703L10.8232 11.1515C10.842 11.2922 10.8748 11.4328 10.917 11.5734ZM10.7482 13.3265L10.767 13.3125C10.7811 13.2984 10.7998 13.2843 10.8139 13.2703C10.8279 13.2562 10.8467 13.2422 10.8607 13.2234C11.0061 13.0922 11.1467 12.9656 11.2826 12.8484L11.3154 13.1578L11.3295 13.1718L11.3529 13.1672L11.5123 12.9656L11.667 13.4437C11.592 13.5468 11.5123 13.6687 11.4326 13.7812L11.3342 13.2843L11.3201 13.2703C11.3107 13.2656 11.3061 13.2703 11.3061 13.2703L11.0998 13.5515L10.9826 13.2515L10.9686 13.2422C10.9592 13.2375 10.9545 13.2422 10.9545 13.2422L10.6779 13.5093L10.7248 13.35C10.7342 13.3406 10.7436 13.3312 10.7482 13.3265ZM10.6451 13.6453L10.7951 14.1562L10.5795 14.4843C10.5279 14.4703 10.4764 14.4562 10.4248 14.4375L10.6451 13.6453ZM10.1389 14.4281L10.1436 14.4234C10.1482 14.4187 10.1482 14.4187 10.1482 14.4187C10.1717 14.4 10.1998 14.3953 10.2232 14.4093C10.2701 14.4328 10.3217 14.4468 10.3732 14.4609C10.5701 14.5265 10.7482 14.564 10.917 14.5922C10.992 14.6015 11.067 14.6062 11.1373 14.6109C11.1654 14.6156 11.1936 14.6156 11.2217 14.6156C11.2217 14.6156 11.2498 14.6156 11.2639 14.6156C11.3201 14.6156 11.3764 14.6156 11.4186 14.6156C11.4326 14.6156 11.4467 14.6156 11.4607 14.6156C11.4982 14.6109 11.5357 14.6109 11.5639 14.6109C11.6201 14.6062 11.6623 14.6062 11.6811 14.6062C11.742 14.6156 11.7607 14.639 11.7607 14.639C11.7748 14.6718 11.7748 14.6906 11.7701 14.6906C11.7701 14.6906 11.7514 14.714 11.742 14.7328C11.7373 14.7375 11.7326 14.7422 11.7326 14.7422L11.7279 14.7515C11.7186 14.7609 11.7092 14.775 11.7092 14.775C11.6811 14.7937 11.6576 14.8031 11.6342 14.8031C11.5311 14.8125 11.4139 14.8125 11.2967 14.8078C11.2076 14.8031 11.1186 14.7984 11.0201 14.7843L11.0248 14.7797C11.0342 14.7515 11.0342 14.7281 11.0342 14.7281C11.0248 14.6578 10.992 14.625 10.9639 14.6015L10.9545 14.5968C10.9451 14.5875 10.9311 14.5828 10.9123 14.5828H10.9029L10.8748 14.5875H10.8701C10.8279 14.6015 10.7951 14.6343 10.7811 14.6765C10.7764 14.6812 10.7764 14.6859 10.7764 14.6859C10.7717 14.714 10.7717 14.7281 10.7717 14.7468V14.7515C10.692 14.7375 10.617 14.7234 10.5467 14.7093C10.3264 14.6625 10.1717 14.6156 10.1482 14.6062C10.1482 14.6062 10.1436 14.6015 10.1436 14.5968L10.1389 14.5922C10.1389 14.5922 10.1295 14.564 10.1295 14.5406C10.1248 14.5172 10.1248 14.4843 10.1248 14.4562C10.1201 14.4656 10.1248 14.4422 10.1389 14.4281ZM10.9873 14.789C10.9826 14.8078 10.9732 14.8265 10.9639 14.8453V14.85C10.9592 14.8547 10.9498 14.864 10.9404 14.8734C10.9264 14.8875 10.9076 14.9062 10.8889 14.9343C10.8842 14.9203 10.8748 14.9062 10.8654 14.8922C10.842 14.8547 10.8139 14.8172 10.8139 14.7656C10.8139 14.7656 10.8139 14.7328 10.8186 14.714L10.8232 14.6906C10.8326 14.6625 10.8561 14.6437 10.8842 14.6343C10.8889 14.6297 10.8936 14.6297 10.8936 14.6297L10.9311 14.639C10.9639 14.6625 10.9826 14.6859 10.9873 14.714C10.992 14.7375 10.992 14.7656 10.9873 14.789ZM9.93262 14.5406C9.97012 14.4797 10.0404 14.4515 10.0873 14.4375C10.0826 14.4468 10.0826 14.4562 10.0826 14.4562C10.0826 14.4843 10.0873 14.5125 10.0873 14.5359C10.092 14.5593 10.092 14.5781 10.0967 14.5968L10.0686 14.6062C10.0451 14.6156 10.0217 14.625 10.0217 14.625C9.95606 14.6531 9.93262 14.6718 9.91387 14.6906C9.90918 14.6718 9.90449 14.6531 9.90449 14.6531C9.90449 14.6062 9.91387 14.5687 9.93262 14.5406ZM13.9123 14.4375C13.9592 14.4515 14.0295 14.4843 14.067 14.5406C14.0811 14.5687 14.0904 14.6015 14.0904 14.6343C14.0904 14.6343 14.0857 14.6718 14.0811 14.6906C14.0576 14.6718 14.0342 14.6531 13.9873 14.6297C13.9732 14.6203 13.9498 14.6109 13.9264 14.6015C13.9264 14.6015 13.9076 14.5968 13.8982 14.5922C13.9029 14.5734 13.9076 14.55 13.9076 14.5312C13.9123 14.5078 13.9123 14.4797 13.9123 14.4562C13.917 14.4656 13.917 14.4468 13.9123 14.4375ZM13.8842 14.6343C13.9826 14.6672 14.0201 14.6953 14.0436 14.7187C14.0576 14.7468 14.067 14.7797 14.0717 14.8265L14.0857 14.85C14.0951 14.8547 14.1045 14.8593 14.1045 14.8593C14.1045 14.8593 14.217 14.8453 14.3107 15.0328L14.3201 15.0422C14.3154 15.0984 14.2873 15.2343 14.217 15.2625C14.217 15.2625 14.2029 15.2718 14.1982 15.2812C14.1842 15.3047 14.1842 15.3328 14.1795 15.3656C14.1701 15.4265 14.1607 15.4875 14.0764 15.5203C13.9592 15.5672 13.0076 15.7406 12.192 15.7312H11.8029C10.9873 15.7406 10.0404 15.5672 9.91856 15.5203C9.83418 15.4875 9.8248 15.4265 9.81543 15.3656C9.81074 15.3375 9.80605 15.3047 9.79668 15.2812C9.79668 15.2812 9.78731 15.2672 9.77793 15.2625C9.70762 15.2343 9.67949 15.1031 9.6748 15.0422L9.68418 15.0328C9.77793 14.8453 9.87637 14.8547 9.87637 14.8547C9.87637 14.8547 9.89512 14.8547 9.90449 14.85L9.91856 14.8265C9.92324 14.7797 9.93262 14.7468 9.94199 14.7187C9.97012 14.6953 10.0076 14.6672 10.1014 14.6343C10.1061 14.639 10.1061 14.6437 10.1061 14.6437C10.1295 14.6672 10.4201 14.7468 10.767 14.8031C10.7764 14.85 10.7998 14.8828 10.8186 14.9156C10.842 14.9437 10.8561 14.9672 10.8514 14.9953C10.8514 14.9953 10.8607 15.014 10.8701 15.0187H10.8748C10.8842 15.0187 10.8889 15.0093 10.8889 15.0093C10.8982 14.9578 10.9311 14.925 10.9545 14.9015C10.9686 14.8922 10.9779 14.8781 10.9779 14.8781L10.9873 14.864L11.0014 14.8359C11.142 14.85 11.2826 14.8593 11.4092 14.8593C11.4889 14.8593 11.5592 14.8547 11.6342 14.8547C11.6482 14.85 11.667 14.8453 11.667 14.8453C11.6951 14.8875 11.7373 14.9109 11.7701 14.9297C11.7795 14.9343 11.7889 14.939 11.7982 14.9437C11.8264 14.9672 11.8311 14.9765 11.8404 14.9953L11.8545 15.0234L11.8686 15.0328H11.8732L11.8873 15.0187C11.9201 14.9437 11.9389 14.8781 11.9482 14.8218H12.0232C12.0326 14.8734 12.0514 14.9437 12.0842 15.0187C12.0889 15.0281 12.0936 15.0328 12.0936 15.0328H12.1029L12.117 15.0234L12.1357 14.9953C12.1451 14.9765 12.1498 14.9672 12.1779 14.9437C12.1779 14.9437 12.1967 14.9343 12.2061 14.9297C12.2389 14.9062 12.2811 14.8828 12.2951 14.8359C12.3092 14.8406 12.3279 14.8453 12.342 14.85C12.4123 14.8547 12.4873 14.8547 12.567 14.8547C12.6936 14.8547 12.8295 14.85 12.9748 14.8312C12.9795 14.8406 12.9842 14.85 12.9842 14.85L12.9889 14.8593L13.017 14.8922C13.0404 14.9156 13.0686 14.9484 13.0779 14.9906C13.0826 15 13.0873 15.0047 13.0873 15.0047H13.0967C13.1061 15 13.1154 14.9953 13.1154 14.9953C13.1107 14.9625 13.1248 14.9343 13.1482 14.9062C13.1717 14.8781 13.1951 14.8406 13.2045 14.7937C13.5467 14.7375 13.842 14.6531 13.8607 14.6343C13.8795 14.6437 13.8842 14.639 13.8842 14.6343ZM13.0076 14.714C13.017 14.6859 13.0357 14.6625 13.0639 14.639C13.0732 14.6343 13.0873 14.6297 13.0967 14.6297C13.0967 14.6297 13.1107 14.6297 13.1154 14.6343C13.1436 14.6437 13.167 14.6625 13.1764 14.6906L13.1811 14.714C13.1857 14.7328 13.1857 14.7468 13.1857 14.7468C13.1811 14.8125 13.1576 14.85 13.1342 14.8875C13.1248 14.9015 13.1154 14.9156 13.1107 14.9297C13.0967 14.9015 13.0732 14.8828 13.0592 14.8687C13.0592 14.8687 13.0404 14.85 13.0357 14.8453V14.8406C13.0357 14.8406 13.017 14.8031 13.0123 14.7843C13.0076 14.7656 13.0029 14.7375 13.0076 14.714ZM13.6264 14.4609C13.6779 14.4468 13.7248 14.4281 13.7764 14.4093C13.7998 14.4 13.8279 14.4 13.8279 14.4C13.8514 14.4187 13.8514 14.4187 13.8561 14.4234L13.8607 14.4281L13.8795 14.4656C13.8795 14.4937 13.8748 14.5265 13.8701 14.55C13.8654 14.5734 13.8654 14.5875 13.8654 14.5875L13.8607 14.6062C13.8561 14.6109 13.8561 14.6156 13.8561 14.6156C13.8326 14.6297 13.6779 14.6765 13.4576 14.7234C13.3873 14.7375 13.3123 14.7515 13.2326 14.7656V14.7609C13.2326 14.7468 13.2279 14.7281 13.2279 14.7093C13.2279 14.7093 13.2232 14.7 13.2232 14.6953C13.2092 14.6531 13.1764 14.6203 13.1342 14.6062H13.1248C13.1154 14.6015 13.1061 14.6015 13.1061 14.6015H13.0826C13.0826 14.6015 13.0545 14.6109 13.0451 14.6156L13.0357 14.6203C13.0076 14.6437 12.9748 14.6718 12.9701 14.7234C12.9701 14.7234 12.9654 14.7703 12.9748 14.7984V14.8031C12.8811 14.8125 12.7873 14.8218 12.6982 14.8265C12.5811 14.8312 12.4639 14.8312 12.3607 14.8218C12.342 14.8172 12.3186 14.8125 12.3045 14.7984C12.3045 14.7984 12.2811 14.7797 12.2717 14.7703L12.267 14.7656C12.267 14.7656 12.2623 14.7515 12.2576 14.7468C12.2576 14.7468 12.2389 14.714 12.2295 14.7047C12.2295 14.7047 12.2201 14.6859 12.2295 14.6672C12.2389 14.6531 12.2576 14.625 12.3186 14.6156C12.3186 14.6156 12.3795 14.6156 12.4357 14.6203C12.4639 14.625 12.5014 14.625 12.5342 14.625H12.5764C12.6232 14.625 12.6748 14.625 12.7311 14.625C12.7451 14.625 12.7592 14.625 12.7732 14.625C12.8014 14.625 12.8295 14.6203 12.8576 14.6203C12.9279 14.6156 12.9982 14.6109 13.0779 14.6015C13.2467 14.5687 13.4295 14.5312 13.6264 14.4609ZM13.5748 14.4375C13.5232 14.4562 13.4717 14.4703 13.4201 14.4843L13.1998 14.1562L13.3498 13.6453L13.5748 14.4375ZM13.3357 13.5797L13.1764 14.1187L12.9701 13.8093L12.9514 13.8C12.942 13.8047 12.9373 13.8093 12.9373 13.814C12.8764 13.9781 12.8389 14.0906 12.8201 14.1468C12.7779 14.0953 12.6936 13.9734 12.5951 13.8281L12.6936 13.3359L12.8904 13.5984C12.8904 13.5984 12.9045 13.6078 12.9092 13.6078C12.9186 13.6078 12.9232 13.6031 12.9232 13.6031L13.0451 13.289L13.3357 13.5797ZM14.4514 14.3343C14.4232 14.3062 14.3904 14.2828 14.3576 14.25L14.3436 14.2359L14.1654 9.94685C14.1045 10.0125 14.0107 10.1062 13.8842 10.2093L14.0389 13.9687L13.917 13.8562H13.9123L13.8936 13.8375L13.7436 10.3125C13.6779 10.3593 13.6076 10.4109 13.5232 10.4625L13.6545 13.6265C13.6123 13.589 13.5701 13.5515 13.5326 13.514L13.5139 13.5L13.392 10.5375C13.3357 10.5656 13.2748 10.5984 13.2139 10.6218C13.2139 10.6218 13.2045 10.6125 13.1998 10.6125C12.4732 10.5937 12.1029 10.3359 12.0279 10.2797C12.0186 10.275 12.0186 10.2703 12.0186 10.2703C12.0186 10.2703 11.9951 10.2656 11.9904 10.2703C11.9904 10.2703 11.9857 10.275 11.9764 10.2797C11.9014 10.3359 11.5357 10.5937 10.8092 10.6125L10.7951 10.6218C10.7295 10.5937 10.6732 10.5656 10.617 10.5375L10.4951 13.5L10.4764 13.514C10.4342 13.5515 10.392 13.589 10.3545 13.6265L10.4857 10.4625C10.4061 10.4156 10.3311 10.364 10.2701 10.3125L10.1201 13.8375L10.1014 13.8562H10.0967L9.97481 13.9687L10.1295 10.2093C10.0029 10.1062 9.90918 10.0125 9.84824 9.94685L9.67012 14.2359L9.65137 14.25C9.62324 14.2781 9.59043 14.3062 9.55762 14.3343L9.74512 9.86247C9.66074 9.88591 9.52012 9.97028 9.45918 10.0031L9.46387 9.97028C9.46855 9.82028 9.55762 9.59528 9.72168 9.56247C9.76855 9.5531 9.81543 9.54841 9.8623 9.54841C10.1201 9.54841 10.3545 9.67497 10.5654 9.79216C10.6217 9.82028 10.6779 9.84841 10.7295 9.87653C10.842 9.93278 11.0623 9.9656 11.2826 9.97966C11.2592 10.0125 11.2311 10.0453 11.1982 10.0734C11.1889 10.0828 11.1889 10.0968 11.1936 10.1062C11.1982 10.1156 11.2076 10.1203 11.2076 10.1203C11.2217 10.1203 11.2217 10.1203 11.2217 10.1203C11.2217 10.1203 11.2545 10.1109 11.2779 10.1109C11.3529 10.1062 11.4514 10.0968 11.5545 10.0031C11.5451 10.064 11.5311 10.1343 11.5311 10.1578C11.5311 10.1672 11.5357 10.1765 11.5357 10.1765C11.5498 10.1859 11.5498 10.1859 11.5498 10.1859L11.5639 10.1812C11.667 10.1343 11.7514 10.0687 11.8076 9.99372C11.8123 9.98903 11.8123 9.98903 11.8123 9.98903L11.8217 9.99372C11.8639 10.0406 11.9248 10.1203 11.9764 10.1484L11.9951 10.1578C11.9998 10.1625 11.9998 10.1625 11.9998 10.1625C11.9998 10.1625 12.0186 10.1578 12.0232 10.1531L12.0279 10.1437C12.1076 10.064 12.1357 10.0312 12.1592 10.0031C12.2342 10.0781 12.4076 10.1672 12.5107 10.1672L12.5389 10.139C12.5389 10.1156 12.5295 10.0781 12.5154 10.0359C12.567 10.064 12.6561 10.0922 12.7732 10.0922C12.7826 10.0922 12.792 10.0875 12.7967 10.0781C12.7967 10.0781 12.8014 10.0593 12.792 10.05L12.7873 10.0453C12.7732 10.0312 12.7592 10.0078 12.7404 9.98435C12.8482 9.97497 12.9561 9.96091 13.0498 9.94685C13.1436 9.9281 13.2232 9.90466 13.2795 9.88122C13.3311 9.8531 13.3826 9.82966 13.4436 9.79685C13.6545 9.67966 13.8889 9.5531 14.1467 9.5531C14.1936 9.5531 14.2404 9.55778 14.2826 9.56716C14.4514 9.59528 14.5404 9.82497 14.5451 9.97497L14.5498 10.0078C14.4889 9.97497 14.3482 9.8906 14.2639 9.86716L14.4514 14.3343Z" fill="#BF920D"/>
<path d="M10.1809 14.5031C10.1809 14.5031 10.3121 14.5312 10.359 14.5687L10.3684 14.5734C10.3777 14.5734 10.3824 14.5687 10.3824 14.5687C10.3918 14.5547 10.3918 14.5406 10.3918 14.5406C10.3262 14.4937 10.1902 14.4656 10.1902 14.4656C10.1762 14.4609 10.1621 14.4703 10.1621 14.4797C10.1715 14.4797 10.1715 14.4984 10.1809 14.5031Z" fill="#BF920D"/>
<path d="M10.5043 14.6016C10.5465 14.6109 10.6637 14.6344 10.7059 14.6531L10.7152 14.6578L10.734 14.6484C10.734 14.6484 10.734 14.625 10.7246 14.6203C10.6684 14.5922 10.5184 14.5641 10.5184 14.5641C10.5043 14.5594 10.4902 14.5687 10.4902 14.5687C10.4902 14.5875 10.4949 14.5969 10.5043 14.6016Z" fill="#BF920D"/>
<path d="M11.0903 14.7188C11.0903 14.7188 11.0997 14.7141 11.1138 14.7141C11.1513 14.7094 11.2403 14.7 11.3013 14.7141L11.306 14.7188L11.3247 14.7047C11.3247 14.7047 11.3247 14.6953 11.32 14.6906C11.3153 14.6859 11.3106 14.6859 11.3106 14.6859C11.2825 14.6766 11.2591 14.6766 11.231 14.6719C11.1794 14.6719 11.1325 14.6766 11.1044 14.6813C11.095 14.6859 11.0903 14.6859 11.0903 14.6859C11.0903 14.6859 11.0669 14.6953 11.0669 14.7047L11.0903 14.7188Z" fill="#BF920D"/>
<path d="M11.4375 14.7375C11.4422 14.7375 11.5687 14.7187 11.6484 14.7187L11.6672 14.6953C11.6672 14.6859 11.6578 14.6765 11.6578 14.6765C11.5781 14.6765 11.4797 14.6906 11.4422 14.6953L11.4328 14.7L11.4188 14.7093L11.4141 14.7234L11.4375 14.7375Z" fill="#BF920D"/>
<path d="M13.6216 14.5687C13.6216 14.5687 13.631 14.5688 13.6357 14.5641C13.6873 14.5266 13.8138 14.4984 13.8138 14.4984C13.8232 14.4937 13.8326 14.4891 13.8326 14.4891C13.8279 14.4656 13.8185 14.4609 13.8185 14.4609C13.8185 14.4609 13.6685 14.4891 13.6123 14.5359C13.6029 14.5406 13.6029 14.5547 13.6076 14.5641C13.6123 14.5688 13.6169 14.5687 13.6216 14.5687Z" fill="#BF920D"/>
<path d="M13.2844 14.6578L13.2938 14.6531C13.3359 14.6297 13.4484 14.6062 13.4953 14.6015C13.5047 14.5968 13.5094 14.5875 13.5094 14.5781L13.4859 14.564C13.4859 14.564 13.3313 14.5922 13.275 14.625L13.2656 14.6531C13.2656 14.6484 13.2797 14.6578 13.2844 14.6578Z" fill="#BF920D"/>
<path d="M12.9092 14.6812L12.8951 14.6766C12.867 14.6719 12.8201 14.6672 12.7732 14.6672H12.7686C12.7404 14.6719 12.717 14.6719 12.6889 14.6766L12.6795 14.6859C12.6748 14.6906 12.6748 14.6953 12.6748 14.6953C12.6748 14.6953 12.6842 14.7187 12.6936 14.7187L12.6982 14.7141C12.7592 14.7 12.8482 14.7094 12.8857 14.7141C12.8857 14.7141 12.8998 14.7187 12.9092 14.7187L12.9279 14.6953C12.9326 14.6859 12.9232 14.6812 12.9092 14.6812Z" fill="#BF920D"/>
<path d="M12.5669 14.7C12.5669 14.7 12.5622 14.6953 12.5528 14.6953C12.52 14.6906 12.4169 14.6765 12.3513 14.6765C12.3419 14.6765 12.3325 14.6859 12.3325 14.6953C12.3325 14.6953 12.3419 14.7187 12.3513 14.7187C12.431 14.7187 12.5575 14.7375 12.5575 14.7375H12.5622L12.581 14.7234L12.5763 14.7093L12.5669 14.7Z" fill="#BF920D"/>
<path d="M13.0875 10.7109L13.05 10.7062C13.0266 10.7062 13.0078 10.7015 12.9891 10.7015C12.7828 10.6875 12.5953 10.65 12.4172 10.589C12.3844 10.5796 12.3563 10.5703 12.3281 10.5609C12.1922 10.5093 12.0891 10.4531 12.0234 10.4109C12.0187 10.4062 12.0141 10.4062 12.0141 10.4062C12.0141 10.4062 11.9906 10.3968 11.9859 10.4015C11.9859 10.4015 11.9766 10.4109 11.9719 10.4109C11.8922 10.4625 11.7656 10.5328 11.5828 10.589C11.4094 10.65 11.2172 10.6875 11.0109 10.7015C10.9922 10.7062 10.9734 10.7062 10.9547 10.7062C10.9406 10.7062 10.9266 10.7109 10.9125 10.7109C10.9125 10.7109 10.8984 10.7203 10.8984 10.7343C10.9031 10.8843 10.9125 11.025 10.9359 11.1703C11.0203 11.6906 11.2359 12.1593 11.5781 12.5625C11.5828 12.5671 11.5875 12.5765 11.5875 12.5765C11.6344 12.6281 11.6813 12.6796 11.7234 12.7265C11.7609 12.764 11.7984 12.8015 11.8359 12.8343C11.8875 12.8812 11.9391 12.9328 11.9953 12.975L12.0047 12.9796L12.0187 12.975C12.075 12.9328 12.1266 12.8812 12.1781 12.839C12.2625 12.7593 12.3422 12.6703 12.4172 12.5859C12.4172 12.5859 12.4266 12.5718 12.4313 12.5671C12.6516 12.3093 12.8156 12.0281 12.9281 11.7234C12.9937 11.55 13.0406 11.3625 13.0687 11.175C13.0922 11.0343 13.1063 10.889 13.1109 10.739C13.1063 10.7203 13.0969 10.7109 13.0875 10.7109ZM12.4125 12.5156L12.3984 12.5343C12.3937 12.539 12.3891 12.5437 12.3891 12.5437C12.3281 12.614 12.2719 12.675 12.2109 12.7359C12.1969 12.75 12.1828 12.764 12.1641 12.7781C12.1125 12.8296 12.0562 12.8765 12 12.9234C11.9484 12.8765 11.8875 12.8296 11.8406 12.7828C11.8078 12.7546 11.7797 12.7218 11.7469 12.689C11.7 12.6421 11.6578 12.5953 11.6156 12.5484C11.6109 12.5437 11.6062 12.539 11.6016 12.5343C11.6016 12.5343 11.5922 12.525 11.5875 12.5156V10.6312C11.5922 10.6312 11.5922 10.6265 11.5922 10.6265C11.7656 10.5703 11.8922 10.5046 11.9719 10.4578C11.9719 10.4578 11.9906 10.4437 12 10.439C12 10.439 12.0188 10.4531 12.0281 10.4578C12.0984 10.5 12.1922 10.5515 12.3187 10.5984C12.3469 10.6078 12.3797 10.6218 12.4078 10.6265L12.4172 10.6312V12.5156H12.4125Z" fill="#BF920D"/>
</g>
<defs>
<clipPath id="clip0_1_9150">
<rect width="24" height="24" fill="white"/>
</clipPath>
</defs>
</svg>
