<svg width="80" height="80" viewBox="0 0 80 80" fill="none" xmlns="http://www.w3.org/2000/svg">
<path d="M1.69231 79.5379C1.5005 79.4234 1.30868 79.3105 1.11841 79.1929C0.840944 79.0284 0.601494 78.8069 0.415833 78.5431C0.230171 78.2793 0.102513 77.9792 0.0412748 77.6625C-0.0199638 77.3458 -0.0133935 77.0197 0.0605496 76.7057C0.134493 76.3917 0.274129 76.0969 0.470263 75.8408C0.679543 75.5797 0.906989 75.3336 1.1509 75.1045C6.02361 70.2277 10.8994 65.3524 15.7783 60.4786C15.9844 60.2887 16.2003 60.1095 16.4249 59.9418L12.6304 56.1783C12.5546 56.2494 12.3489 56.4258 12.1586 56.616C9.50102 59.2705 6.84553 61.927 4.19209 64.5856C3.44339 65.3374 2.60652 65.7257 1.55 65.3591C1.20767 65.2434 0.897793 65.0479 0.645983 64.7887C0.394172 64.5295 0.207657 64.2141 0.101856 63.8686C-0.0039454 63.5231 -0.0259967 63.1574 0.0375265 62.8016C0.10105 62.4459 0.248321 62.1104 0.467171 61.8229C0.65658 61.5808 0.86338 61.3528 1.08593 61.1407C3.66408 58.5553 6.24739 55.972 8.83586 53.3908C9.09789 53.168 9.37323 52.9613 9.66035 52.772C8.95033 52.1239 8.35787 51.6304 7.81955 51.0859C4.23231 47.4569 4.2091 42.2995 7.81955 38.686C19.6512 26.8265 31.4953 14.9845 43.3517 3.16008C46.9637 -0.444182 52.1256 -0.422522 55.7438 3.18328C62.6131 10.0267 69.4746 16.8789 76.3283 23.7399C77.787 25.1909 78.6069 26.9327 79.0385 28.8988V31.0645C78.6038 33.8102 76.8837 35.7268 74.9934 37.6078C63.9099 48.631 52.7552 59.5892 41.8697 70.8057C37.4364 75.3752 31.5056 75.5624 27.5069 70.7732C27.2986 70.4935 27.1065 70.2022 26.9314 69.9007C23.9784 72.8569 21.2481 75.6134 18.4838 78.3375C18.0012 78.8124 17.3778 79.1434 16.8209 79.541H15.7381C14.7574 79.0336 13.8926 78.3576 14.0752 77.1448C14.2038 76.4498 14.5341 75.808 15.025 75.2994C17.8094 72.4438 20.6464 69.6486 23.3782 66.923L19.5419 63.0805C19.4122 63.2996 19.2631 63.5067 19.0964 63.6993C14.3371 68.4699 9.57166 73.2343 4.80002 77.9925C4.22767 78.5618 3.55322 79.0274 2.92673 79.5394L1.69231 79.5379ZM50.9129 5.29788C50.8386 5.59334 50.8046 5.71245 50.7799 5.83156C48.674 16.3339 46.5682 26.8358 44.4623 37.3371C44.1437 38.9289 43.6224 39.495 42.0399 39.8121C34.489 41.326 26.935 42.8348 19.3779 44.3383C16.2841 44.9571 13.1904 45.5759 9.92642 46.2333C10.3503 46.8072 10.6535 47.3471 11.0758 47.7709C17.9563 54.6804 24.8483 61.5754 31.7515 68.4559C33.5057 70.2039 35.8121 70.1962 37.5725 68.4358C49.4196 56.599 61.26 44.7591 73.0938 32.9161C74.8619 31.1465 74.8789 28.8663 73.117 27.0982C66.2343 20.1888 59.3398 13.2963 52.4335 6.42093C52.0143 6.00481 51.4759 5.70936 50.9129 5.29788ZM12.287 41.0342C21.259 39.2413 30.3438 37.4129 39.4427 35.6201C40.08 35.4948 40.1867 35.156 40.2857 34.6579C41.5872 28.1063 42.8933 21.5578 44.204 15.0124C44.7021 12.5219 45.2033 10.0314 45.6859 7.6275L12.287 41.0342Z" fill="white"/>
</svg>
